<svg xmlns="http://www.w3.org/2000/svg" viewBox="0 0 494.72 371.11"><defs><style>.a{fill:none;stroke-miterlimit:5.3;stroke-opacity:0.99;}.a,.e,.h,.i{stroke:#333;stroke-linecap:round;stroke-width:10px;}.b,.h{fill:#fefae0;}.b,.d,.e,.f,.g,.h,.i{fill-rule:evenodd;}.c,.g,.i{fill:#333;}.d,.e{fill:#dda15d;}.e{stroke-miterlimit:6;}.f{fill:#bc6c25;}.h{stroke-miterlimit:4.21;}.i{stroke-miterlimit:1.05;}</style></defs><path class="a" d="M161.16,6.39a4.75,4.75,0,0,0-6.72,6.72l35.1,35.11a4.76,4.76,0,0,0,6.72-6.73Z" transform="translate(0 0)"/><path class="a" d="M333.56,6.39a4.75,4.75,0,0,1,6.72,6.72l-35.1,35.11a4.76,4.76,0,1,1-6.72-6.73Z" transform="translate(0 0)"/><path class="b" d="M233.9,79.52a36.21,36.21,0,0,1,0-72.41h26.92a36.21,36.21,0,0,1,0,72.41Z" transform="translate(0 0)"/><path class="c" d="M260.82,12.11a31.21,31.21,0,0,1,0,62.41H233.9a31.21,31.21,0,0,1,0-62.41h26.92m0-10H233.9a41.21,41.21,0,0,0,0,82.41h26.92a41.21,41.21,0,0,0,0-82.41Z" transform="translate(0 0)"/><path class="d" d="M243.39,240.43c-80,0-136.65-6.67-136.65-93,0-30.79,11.92-56.36,34.45-73.95,18.88-14.73,44.45-23.18,70.15-23.18,12.71,0,24.5,2.12,34.09,6.14l1.77.75,1.82-.64c9.46-3.33,20.88-5.09,33-5.09,26.45,0,52.54,8.14,71.58,22.35,23,17.17,35.18,42.63,35.18,73.62,0,39.9-13.39,64.87-42.14,78.59C318.77,239.32,278.73,240.43,243.39,240.43Z" transform="translate(0 0)"/><path class="c" d="M211.35,45.28v10c12.05,0,23.16,2,32.14,5.75l3.56,1.49,3.63-1.28c8.93-3.14,19.78-4.81,31.36-4.81,25.39,0,50.39,7.79,68.59,21.37a80.24,80.24,0,0,1,23.81,27.86c6.21,12.12,9.36,26.17,9.36,41.75,0,19.91-3.64,36.28-10.82,48.65-6.39,11-15.7,19.33-28.47,25.43-26.95,12.87-66.33,13.94-101.12,13.94-35.34,0-71.9-1.06-96.44-13.79a57.55,57.55,0,0,1-25.53-25.17c-6.51-12.54-9.68-28.59-9.68-49.06,0-15.44,3.09-29.46,9.17-41.68a82.41,82.41,0,0,1,23.36-28.32c18-14.06,42.46-22.13,67.07-22.13v-10m0,0c-49.14,0-109.6,30.6-109.6,102.13,0,90.91,61.06,98,141.65,98s150.41-7.11,150.41-98c0-72.38-61.92-101-111.76-101-12.76,0-24.74,1.88-34.68,5.38-10.23-4.29-22.7-6.53-36-6.53Z" transform="translate(0 0)"/><path class="e" d="M292.5,49S376.35.6,431.9,56.91a199.56,199.56,0,0,1-20.74,2.46s18.59,11.45,19.15,27.24c.44,12.32-5.28,18.86-12.34,30.91" transform="translate(0 0)"/><path class="e" d="M203,49S119.19.6,63.64,56.91a199.21,199.21,0,0,0,20.73,2.46S65.78,70.82,65.22,86.61c-.44,12.32,5.28,18.86,12.35,30.91" transform="translate(0 0)"/><path class="f" d="M247.36,252.32c-22.4-11.08-71-37.43-88.68-65.11l-.09-.14c-21.52-31.5-22-62.9-1.17-78.14,9.88-7.23,24.85-11.38,41.08-11.38,18.45,0,35.05,5.3,45.55,14.55l3.31,2.91,3.3-2.91c10.5-9.25,27.11-14.55,45.56-14.55,16.22,0,31.2,4.15,41.08,11.38,20.82,15.24,20.35,46.64-1.17,78.14l-.09.14C318.39,214.89,269.75,241.24,247.36,252.32Z" transform="translate(0 0)"/><path class="c" d="M296.22,102.55c15,0,29.22,3.89,38.13,10.42,11,8.06,13.32,19.7,13.32,28.05,0,13.27-5.42,28.22-15.67,43.23l-.09.14-.09.13c-11.95,18.75-42.61,41.31-84.46,62.22-41.86-20.92-72.51-43.47-84.46-62.22l-.09-.13-.09-.14c-10.25-15-15.68-30-15.68-43.23,0-8.35,2.32-20,13.33-28.05,8.91-6.53,23.17-10.42,38.13-10.42,17,0,32.79,5,42.25,13.3l6.61,5.82,6.61-5.82c9.46-8.33,25.25-13.3,42.25-13.3m0-10c-18.21,0-36.71,5.1-48.86,15.79-12.15-10.69-30.65-15.79-48.86-15.79-16.6,0-33,4.24-44,12.35-23.22,17-23.22,51,0,85,16.26,25.5,58.06,51,92.9,68,34.84-17,76.64-42.5,92.9-68,23.22-34,23.22-68,0-85-11.08-8.11-27.44-12.35-44-12.35Z" transform="translate(0 0)"/><path class="b" d="M195,351a95.37,95.37,0,0,1-17.91-20,107.69,107.69,0,0,1-17.92-60.29,112.62,112.62,0,0,1,2.35-22.95l4.1-19.68L152.8,243.55a88.5,88.5,0,0,0-16.14,28.77,90.93,90.93,0,0,1-.8-12c0-54.85,50-99.47,111.5-99.47s111.5,44.62,111.5,99.47a89.27,89.27,0,0,1-.81,12,88.47,88.47,0,0,0-16.13-28.77l-12.84-15.47,4.1,19.68a113.25,113.25,0,0,1,2.34,22.95A107.61,107.61,0,0,1,317.6,331a95.05,95.05,0,0,1-17.9,20,82.16,82.16,0,0,0,10.23-40.09c0-25.93-11.92-50.15-31.11-63.2l-2.93-2-2.85,2.1c-9.05,6.67-15.08,18.44-16.38,31.54A116.83,116.83,0,0,1,252.11,268l-4.75-14.46L242.61,268a114.89,114.89,0,0,1-4.56,11.37c-1.29-13.1-7.32-24.87-16.37-31.54l-2.85-2.1-2.93,2c-19.19,13.05-31.11,37.27-31.11,63.2A82.16,82.16,0,0,0,195,351Z" transform="translate(0 0)"/><path class="c" d="M247.36,165.82c55.09,0,100.55,37.3,106,84.93a98.74,98.74,0,0,0-7.55-10.4l-25.69-30.93,8.2,39.36a107.57,107.57,0,0,1,2.24,21.93,102.69,102.69,0,0,1-17.07,57.51l-.28.42a90.37,90.37,0,0,0,1.76-17.74,87.78,87.78,0,0,0-9-39.07,74.12,74.12,0,0,0-24.26-28.27l-5.86-4-5.7,4.2a44.89,44.89,0,0,0-14.39,19l-8.3-25.32L239,262.83a44.86,44.86,0,0,0-14.39-19l-5.71-4.2-5.85,4a74.12,74.12,0,0,0-24.26,28.27,87.78,87.78,0,0,0-9,39.07,89.62,89.62,0,0,0,1.76,17.74l-.29-.42a102.76,102.76,0,0,1-17.06-57.51,107.57,107.57,0,0,1,2.24-21.93l8.19-39.36L149,240.35a97.71,97.71,0,0,0-7.55,10.4c5.41-47.63,50.86-84.93,106-84.93m0-10c-64.3,0-116.5,46.81-116.5,104.47a94.52,94.52,0,0,0,6.76,35.13c.52-18,7.47-34.75,19-48.68a117,117,0,0,0-2.45,24c0,47.34,27.94,87.4,66.27,100.4-18.24-11.42-30.68-34.11-30.68-60.21,0-25.25,11.64-47.31,28.92-59.07,8.71,6.42,14.61,18.72,14.61,32.83a48.18,48.18,0,0,1-2.2,14.5c9.36-8.63,16.24-29.62,16.24-29.62s6.87,21,16.24,29.62a47.87,47.87,0,0,1-2.2-14.5c0-14.11,5.9-26.41,14.61-32.83,17.27,11.76,28.92,33.82,28.92,59.07,0,26.1-12.44,48.79-30.69,60.21,38.33-13,66.28-53.06,66.28-100.4a117.75,117.75,0,0,0-2.45-24c11.56,13.93,18.51,30.65,19,48.68a94.52,94.52,0,0,0,6.76-35.13c0-57.66-52.2-104.47-116.5-104.47Z" transform="translate(0 0)"/><path class="g" d="M217.77,194.54c-3.32,2.29-4.24,7.45-2.76,12.07a12.5,12.5,0,0,0,5.68,6.81,14.88,14.88,0,0,0,5.91,1.77,14.52,14.52,0,0,0,6.58-1.18c3.1-1.32,5.26-3.72,7.41-6.12,1.71-1.91,3.37-4,6.88-4s5,1.85,6.64,3.75c2.13,2.43,4.27,4.9,7.35,6.28a14.13,14.13,0,0,0,6.65,1.24,14.87,14.87,0,0,0,4.57-1.13,12.61,12.61,0,0,0,7-7.69c1.41-4.67.45-9.87-2.81-12.16,1.9,2.71,1.39,7-.94,10.33-1.57,2.22-4.21,3.51-7.78,3-3.61-.14-5.11-2.51-6.76-4.6-2.06-2.62-4.22-5.13-7.3-6.62a14.62,14.62,0,0,0-6.92-1.35,15.79,15.79,0,0,0-6.61,1.67c-3,1.56-5.1,4-7.12,6.43-1.67,2-3.19,4.27-6.8,4.4-3.53.52-6.17-.64-7.75-2.76C216.46,201.44,215.89,197.26,217.77,194.54Z" transform="translate(0 0)"/><path class="g" d="M245.3,187.36l-1.07,10a3.13,3.13,0,1,0,6.25,0l-1.07-9.8a2.06,2.06,0,0,0-4.11-.22Z" transform="translate(0 0)"/><path class="b" d="M285.11,177.29A30.27,30.27,0,0,0,254.86,147h-15a30.26,30.26,0,0,0-30.25,30.25" transform="translate(0 0)"/><path class="g" d="M285.11,177.29a28.61,28.61,0,0,0,.74-10.61,19.71,19.71,0,0,0-1.11-4.62,27.47,27.47,0,0,0-5.74-8.91,33.66,33.66,0,0,0-24.14-10.63h-15a33.83,33.83,0,0,0-24.13,10.65,28.34,28.34,0,0,0-5.81,8.87,18.15,18.15,0,0,0-.76,2.54,22.07,22.07,0,0,0-.55,3.9,28.67,28.67,0,0,0,1,8.81,32.37,32.37,0,0,1,5-10.43c.41-.61.83-1.17,1.23-1.78a33.7,33.7,0,0,1,5.33-6.43,26.37,26.37,0,0,1,18.65-7.08h15a26.42,26.42,0,0,1,18.63,7.09,34,34,0,0,1,4.77,5.53c.63.89,1.27,1.72,1.88,2.64A32.18,32.18,0,0,1,285.11,177.29Z" transform="translate(0 0)"/><path class="g" d="M229.43,165.15a1.73,1.73,0,0,1-.93,0,.74.74,0,0,1-.36-.27c-.06-.06.15-.08.2-.19a1.46,1.46,0,0,1,1.27-.94,4,4,0,0,1,2.73.48,3.91,3.91,0,0,1,2.06,3.37,1.94,1.94,0,0,0,3.87.31,8.26,8.26,0,0,0-4.91-8.88,8.16,8.16,0,0,0-5.69-.54,6.48,6.48,0,0,0-4.53,4.53c-.78,2.88.3,5.13,2.31,6.23a6.17,6.17,0,0,0,5.84.1,2.29,2.29,0,0,0-1.86-4.19Z" transform="translate(0 0)"/><path class="g" d="M263.22,169.94a6.17,6.17,0,0,0,5.84-.1c2-1.1,3.08-3.34,2.31-6.23a6.51,6.51,0,0,0-4.53-4.53,8.59,8.59,0,0,0-10.61,9.42,1.94,1.94,0,1,0,3.87-.31,3.93,3.93,0,0,1,2.06-3.37,4.08,4.08,0,0,1,2.73-.48,1.48,1.48,0,0,1,1.28.94c0-.11.13.13.19.19s-.2.24-.36.27a1.63,1.63,0,0,1-.93,0,2.29,2.29,0,1,0-1.85,4.19Z" transform="translate(0 0)"/><path class="h" d="M247.38,116.55c-85.63-63.79-106.13,24.94-168.84,23.16-35.12-2.19-63.49-23.09-70-49.27,12.77,10.54,30.23,18.8,49.85,18.8C106,109.24,109.45,75,149.7,72c-21.46-11.22-46.45-7.25-46.45-7.25s21.13-21.16,55.53-23.8c55.76-4.28,88.6,48.12,88.6,75.64" transform="translate(0 0)"/><path class="h" d="M247.34,116.55C333,52.76,353.47,141.49,416.18,139.71c35.12-2.19,63.49-23.09,70-49.27-12.78,10.54-30.23,18.8-49.86,18.8C388.74,109.24,385.27,75,345,72c21.46-11.22,46.45-7.25,46.45-7.25s-21.13-21.16-55.54-23.8c-55.76-4.28-88.59,48.12-88.59,75.64" transform="translate(0 0)"/><path class="i" d="M321.85,135.36c2.18-2.19,2.25-8-1.7-8l-28.23,4a4.05,4.05,0,0,0,0,8.1l20.55.58C314.7,140,320.26,136.94,321.85,135.36Z" transform="translate(0 0)"/><path class="i" d="M172.87,135.36c-2.19-2.19-2.25-8,1.7-8l28.23,4a4,4,0,0,1,0,8.1l-20.55.58C180,140,174.45,136.94,172.87,135.36Z" transform="translate(0 0)"/><path class="g" d="M239.23,233.79h16.25l-8.13,6Z" transform="translate(0 0)"/></svg>