<svg xmlns="http://www.w3.org/2000/svg" viewBox="0 0 494.72 371.11"><defs><style>.a{fill:#fff;}</style></defs><path class="a" d="M483,87.64c-8,6.59-24.68,17.66-46.67,17.66-1.65,0-3.24,0-4.77-.14a36,36,0,0,0,3.74-17.67c-.34-9.66-6.1-17.71-11.58-23.23,2.89-.36,6-.81,9.07-1.37l9.29-1.71-6.63-6.72c-23.93-24.26-56.78-33.41-95-26.48-3,.55-6,1.18-8.79,1.86l12.14-12.13A9.76,9.76,0,0,0,330,3.91L300.53,33.4A41.25,41.25,0,0,0,287,12.58c-1-.84-2.08-1.63-3.17-2.37s-2.23-1.43-3.4-2.06a39.75,39.75,0,0,0-3.6-1.74c-.62-.26-1.24-.51-1.87-.74q-1.89-.69-3.87-1.2c-1.32-.34-2.66-.62-4-.83a41.88,41.88,0,0,0-6.27-.47H233.9A41.23,41.23,0,0,0,194.19,33.4L164.7,3.91a9.76,9.76,0,0,0-13.8,13.8l11.88,11.87c-2.5-.58-5.08-1.12-7.72-1.6-38.21-6.93-71.06,2.22-95,26.48l-6.64,6.72,9.29,1.71c3.06.56,6.19,1,9.07,1.37-5.48,5.52-11.23,13.57-11.58,23.23A36,36,0,0,0,64,105.12c-1.79.11-3.64.18-5.58.18-22,0-38.67-11.07-46.67-17.66L0,78,3.67,92.71c7.22,29,37.88,50.76,74.56,53.05h.17l2,0a70.29,70.29,0,0,0,21.47-3.38c0,.35,0,.7,0,1.05s0,.78,0,1.17c0,1.27-.07,2.54-.07,3.84q0,6.39.4,12.24.27,3.9.7,7.57t1,7.11q.6,3.45,1.37,6.67c.51,2.15,1.08,4.23,1.69,6.25s1.29,3.95,2,5.83a73.25,73.25,0,0,0,9.41,17.35q1.61,2.14,3.34,4.14a67.56,67.56,0,0,0,15.09,12.76q.66-1.77,1.38-3.51-.72,1.74-1.38,3.51a94.33,94.33,0,0,0-5.93,33q0,4.62.44,9.14a94.77,94.77,0,0,0,3.41,17.6c.42,1.42.88,2.83,1.36,4.23s1,2.78,1.55,4.15a75.1,75.1,0,0,1,1-10c.18-1.09.38-2.18.6-3.26.46-2.16,1-4.29,1.64-6.4a78.64,78.64,0,0,1,3.45-9.26q1.35-3,2.95-5.93a85.93,85.93,0,0,1,7.31-11.19c.69-.89,1.39-1.77,2.12-2.64h0c-.61,2.88-1.1,5.82-1.48,8.79q-.39,3-.62,6c-.24,3-.35,6.08-.35,9.18,0,1.48,0,3,.08,4.41.1,2.93.32,5.83.64,8.69A113.16,113.16,0,0,0,157,297.5q.47,2.06,1,4.08c.72,2.7,1.52,5.36,2.42,8a110.33,110.33,0,0,0,4.62,11.37c1.15,2.45,2.39,4.83,3.71,7.16a103.92,103.92,0,0,0,13.89,19.1,95.63,95.63,0,0,0,17.46,15c2.12,1.41,4.28,2.72,6.5,3.93a86.34,86.34,0,0,0,13.85,6.11c-.57-.36-1.13-.73-1.69-1.1a57.14,57.14,0,0,1-4.86-3.7c-.78-.65-1.53-1.34-2.27-2q-1.85-1.72-3.57-3.61l-.27-.31c-.79-.88-1.55-1.78-2.29-2.71-.52-.65-1-1.31-1.53-2s-.84-1.15-1.24-1.73c-.81-1.18-1.59-2.38-2.33-3.62s-1.45-2.5-2.13-3.8a74,74,0,0,1-5.06-12.38,77.59,77.59,0,0,1-2.55-11.27,79.59,79.59,0,0,1-.89-12c0-25.25,11.64-47.31,28.92-59.06a31.3,31.3,0,0,1,6.9,7.14c.27.38.52.76.78,1.15.49.74,1,1.51,1.39,2.31a39.89,39.89,0,0,1,2.33,4.93,47.09,47.09,0,0,1,3.21,17.3,49.73,49.73,0,0,1-.54,7.29c-.1.68-.21,1.35-.34,2-.23,1.19-.51,2.35-.82,3.5-.16.57-.32,1.13-.5,1.69a39.78,39.78,0,0,0,6.49-8.27c.49-.8,1-1.61,1.43-2.43a109.41,109.41,0,0,0,5.65-11.83c.28-.69.55-1.35.79-2l.35-.89c1-2.58,1.53-4.24,1.53-4.24s.54,1.66,1.53,4.24l.35.89c.24.61.5,1.27.79,2a109.41,109.41,0,0,0,5.65,11.83c.32.57.65,1.12,1,1.68s.79,1.3,1.2,1.93c.25.39.5.77.76,1.15a38.43,38.43,0,0,0,4.11,5.1q.43.44.87.84h0c-.18-.56-.34-1.12-.5-1.69s-.31-1.15-.44-1.74c-.25-1.08-.47-2.18-.64-3.3,0-.16-.06-.32-.08-.48a49.73,49.73,0,0,1-.54-7.29,47.09,47.09,0,0,1,3.21-17.3,39.89,39.89,0,0,1,2.33-4.93,33,33,0,0,1,9.07-10.6c17.27,11.75,28.92,33.81,28.92,59.06a82.17,82.17,0,0,1-.57,9.62,79,79,0,0,1-2.87,13.61c-.45,1.45-.94,2.88-1.46,4.28-.79,2.11-1.66,4.15-2.62,6.14-.53,1.09-1.08,2.16-1.66,3.21l-.76,1.37q-1.42,2.47-3,4.8c-.41.58-.82,1.16-1.24,1.73-.63.86-1.28,1.69-2,2.51a63,63,0,0,1-6.44,6.8c-.5.46-1,.91-1.54,1.35a57.14,57.14,0,0,1-4.86,3.7l-1.7,1.1a86.45,86.45,0,0,0,13.86-6.11c1.51-.83,3-1.72,4.46-2.64,1.75-1.09,3.48-2.24,5.16-3.46,2.06-1.49,4.07-3.07,6-4.74s3.83-3.42,5.65-5.25a99,99,0,0,0,6.82-7.6,104,104,0,0,0,9.74-14.3,109.32,109.32,0,0,0,7.47-16.1c.84-2.25,1.6-4.54,2.3-6.87.34-1.16.67-2.34,1-3.52.88-3.33,1.61-6.74,2.19-10.2.07-.37.13-.75.19-1.13a118.18,118.18,0,0,0,1.45-18.48q0-2.32-.09-4.62c-.06-1.53-.14-3-.26-4.56-.1-1.26-.22-2.52-.35-3.76q-.61-5.61-1.75-11h0c.72.87,1.43,1.75,2.11,2.64a89.49,89.49,0,0,1,5.67,8.3q1.71,2.86,3.18,5.83a77.73,77.73,0,0,1,4.87,12.25c.38,1.25.71,2.52,1,3.79a75.29,75.29,0,0,1,2.17,15.86h0a95.64,95.64,0,0,0,3.82-11.77c.44-1.75.86-3.51,1.2-5.29a94.63,94.63,0,0,0-.63-39.11q-.58-2.55-1.3-5.05c-.81-2.83-1.76-5.62-2.83-8.35.43-.27.87-.53,1.29-.81q2.34-1.51,4.54-3.17a72.38,72.38,0,0,0,8.26-7.29c.94-1,1.84-2,2.72-3s1.84-2.18,2.71-3.34a72.82,72.82,0,0,0,8.77-15.14c.81-1.88,1.57-3.82,2.26-5.83s1.33-4.1,1.91-6.25,1.1-4.37,1.55-6.67.85-4.67,1.18-7.11.59-5,.79-7.57q.46-5.85.46-12.24c0-1.3,0-2.58-.07-3.85,0-.4,0-.79,0-1.18s0-.51,0-.77a69.93,69.93,0,0,0,20.64,3.12l2,0h.17c36.68-2.29,67.34-24.1,74.56-53L494.72,78ZM318.86,178.88q-2-1.4-4.08-2.72a119.24,119.24,0,0,0-16.93-9q-3.25-1.41-6.62-2.64c-1.48-.54-3-1-4.48-1.52-.78-.26-1.56-.51-2.35-.75a28.12,28.12,0,0,0-5.4-8.07,33.67,33.67,0,0,0-24.14-10.64h-15a33.87,33.87,0,0,0-24.13,10.65,29.39,29.39,0,0,0-5.47,8.08q-2.85.85-5.62,1.85l-2.45.89c-1.79.68-3.57,1.39-5.32,2.15q-4.06,1.76-7.94,3.78c-2.58,1.35-5.11,2.78-7.56,4.3-.78.49-1.56,1-2.33,1.48-1.3.84-2.57,1.71-3.83,2.6q-3.77,2.67-7.27,5.6-1.75,1.47-3.44,3c-.56-.79-1.11-1.58-1.6-2.36l-.09-.14-.09-.13c-10.25-15-15.67-30-15.67-43.23,0-8.35,2.31-20,13.32-28.06,8.91-6.52,23.17-10.42,38.13-10.42A81.9,81.9,0,0,1,219,106.16c8.69,2.26,16.26,5.94,21.71,10.75l1.59,1.4,5,4.41,5-4.42,1.59-1.39c5.45-4.81,13-8.49,21.71-10.75a81.9,81.9,0,0,1,20.54-2.56c15,0,29.22,3.9,38.13,10.42,11,8.06,13.32,19.71,13.32,28.06,0,13.27-5.42,28.22-15.67,43.23l-.09.13-.09.14c-.5.78-1,1.57-1.6,2.37A115.18,115.18,0,0,0,318.86,178.88ZM58.37,115.3a91.58,91.58,0,0,0,11-.65c1.85-.23,3.64-.5,5.35-.83s3.49-.74,5.14-1.19c14.13-3.8,23.67-11,32.39-17.68,2.57-2,5.1-3.87,7.7-5.69h0c6.79-4.73,14.11-8.71,23.95-10.48a60.48,60.48,0,0,1,6.19-.77l2.09-.16,15.36-1.15-6.77-3.54L156,70.67l-4-2.08a67,67,0,0,0-6.79-3.07h0A84.89,84.89,0,0,0,119,60.19,90.54,90.54,0,0,1,159.17,47a74.49,74.49,0,0,1,22.63,1.66c.92.21,1.82.44,2.7.68h0a71.21,71.21,0,0,1,9,3.11c1,.42,1.94.85,2.89,1.3l1.36.66c1.5.75,2.95,1.54,4.34,2.35,1.62.94,3.16,1.92,4.62,2.92a81.85,81.85,0,0,1,9.64,7.69c2.08,1.92,4,3.92,5.84,6a90.49,90.49,0,0,1,9.21,12.21,79.62,79.62,0,0,1,8.66,18.58c-.37-.23-.75-.43-1.12-.65s-1-.59-1.54-.87l-1.22-.63c-.52-.26-1-.52-1.56-.77l-1.29-.59c-.52-.23-1-.47-1.58-.69s-.9-.37-1.35-.54-1.07-.42-1.62-.62l-1.4-.49c-.54-.19-1.09-.38-1.64-.55l-1.44-.44c-.55-.17-1.11-.33-1.67-.48l-.59-.17c-38.91-17.19-63.6-.13-87.62,16.49-6.78,4.69-13.42,9.28-20.3,13.09A91.22,91.22,0,0,1,103,131.43h0a61.52,61.52,0,0,1-24.2,4.34c-25.4-1.6-47.43-13.48-58.71-30.49A80.83,80.83,0,0,0,58.37,115.3ZM70.22,87.84C70.67,75,86.84,64.78,87,64.68l13.49-8.3-15.81-1c-.07,0-4.32-.26-9.83-.89,20.55-16.6,46.55-22.28,77.45-16.89-32.2,4.53-51.72,23.71-52.58,24.58L88.84,73.11,104,70.7a84.65,84.65,0,0,1,27.32,1.12c-10.13,3.72-17.74,9.51-25.18,15.17-9.21,7-18,13.71-31.72,16.69C71.59,98.52,70,94.1,70.22,87.84ZM211.35,46.35v4.36h0Zm199.52,9.08-15.7,1,13.36,8.3c.17.1,16.33,10.28,16.79,23.16.22,6.33-1.4,10.76-4.32,16-14.1-2.9-23.08-9.73-32.45-16.85-7.43-5.66-15-11.44-25.16-15.16a85.39,85.39,0,0,1,27.3-1.13l15.19,2.41L395,62.23c-.86-.86-20.19-19.87-52.12-24.52,31.05-5.49,57.17.17,77.8,16.83C415.19,55.17,410.93,55.43,410.87,55.43ZM271.58,60A99.27,99.27,0,0,0,258,75.57a100.29,100.29,0,0,0-6.22,10,92.36,92.36,0,0,0-4.45,9.36,92.36,92.36,0,0,0-4.45-9.36,102.17,102.17,0,0,0-6.22-10A99.27,99.27,0,0,0,223.14,60c-1.19-1.1-2.46-2.22-3.8-3.34a78.45,78.45,0,0,1,24.15,5.44l3.56,1.49,3.63-1.28a89.75,89.75,0,0,1,23.38-4.53C273.2,58.51,272.38,59.25,271.58,60ZM204.39,46.54Zm-49.91,59.4h0c-1.09.8-2.12,1.63-3.11,2.5,1-.87,2-1.7,3.11-2.5Zm238.14,25.83h0a87.35,87.35,0,0,1-11.09-5.1,233.07,233.07,0,0,1-21.22-13.6c-16.94-11.72-34.2-23.66-56.55-23.66-9.34,0-19.57,2.1-31,7.16l-.62.17-1.72.5-1.39.42c-.57.18-1.14.37-1.7.57L266,98.7l-1.66.64-1.31.52q-.83.35-1.62.72l-1.26.56-1.59.8c-.4.2-.8.4-1.19.61s-1.05.59-1.56.89-.74.41-1.1.63a79.62,79.62,0,0,1,8.66-18.58,90.49,90.49,0,0,1,9.21-12.21c1.82-2,3.76-4,5.84-6A84.66,84.66,0,0,1,288,59.64q1.37-.93,2.82-1.83,2.9-1.8,6.15-3.44l1.8-.87c.8-.37,1.62-.74,2.45-1.09q3.16-1.33,6.61-2.42h0q2.46-.77,5.06-1.38A74.58,74.58,0,0,1,335.55,47a90.66,90.66,0,0,1,40.17,13.24A84.38,84.38,0,0,0,349,65.7h0a66,66,0,0,0-6.32,2.89l-4.6,2.4-3.73,2L327.2,76.7l16.3,1.22,1.15.09c2,.15,4,.4,5.8.71,10.5,1.81,18.15,6.13,25.31,11.22h0c2.26,1.61,4.48,3.29,6.73,5,8.86,6.74,18.58,14.12,33.09,17.87q2.49.63,5.17,1.13c1.72.32,3.52.58,5.38.79a90.8,90.8,0,0,0,10.2.56,80.9,80.9,0,0,0,38.32-10c-11.28,17-33.31,28.89-58.71,30.49A61,61,0,0,1,392.62,131.77ZM233.9,13.17h26.92A31.24,31.24,0,0,1,292,44.37a2.17,2.17,0,0,1,0,.26c-1.17.63-1.87,1-2,1.11a5,5,0,0,0-1.85,1.9h0l-.77,0-2-.06-.77,0-2.6,0H282c-1.41,0-2.82,0-4.21.08l-.86,0c-1.37.06-2.73.13-4.07.23l-.63.05c-1.27.1-2.53.22-3.77.36l-.51,0c-1.32.15-2.62.33-3.91.53l-.78.12c-1.29.2-2.56.42-3.81.67l-.35.08c-1.19.23-2.35.49-3.49.77l-.63.15c-1.18.29-2.34.61-3.48.94l-.7.21c-1.16.35-2.31.71-3.42,1.11-1.16-.49-2.35-.94-3.56-1.37l-.62-.22c-1.17-.41-2.36-.78-3.57-1.14l-.74-.21c-1.24-.35-2.49-.68-3.77-1l-.46-.1c-1.22-.28-2.45-.54-3.71-.77l-.62-.12c-1.3-.23-2.63-.43-4-.62l-.88-.12c-1.34-.17-2.69-.32-4.06-.44l-.73-.06c-1.36-.11-2.74-.2-4.13-.26l-.33,0c-1.45-.06-2.92-.09-4.39-.09h-2l-1.86,0-.89,0-.59,0a5.31,5.31,0,0,0-.92-.7c-.18-.1-1.17-.66-2.84-1.53A31.24,31.24,0,0,1,233.9,13.17ZM121.42,197.53c-6.51-12.54-9.68-28.59-9.68-49.06,0-3.45.17-6.82.47-10.12,10-4.65,19-10.9,27.89-17.06l2.28-1.57c.23-.43.47-.85.71-1.27-.24.42-.48.84-.71,1.27-.34.63-.67,1.26-1,1.9-.63,1.33-1.17,2.69-1.67,4.09-.16.46-.31.92-.46,1.39-.44,1.39-.83,2.8-1.14,4.25a49.51,49.51,0,0,0-.81,5.25,53.4,53.4,0,0,0-.27,5.41v.07q0,2.79.27,5.67t.81,5.85a80.79,80.79,0,0,0,3.27,12.12,100.06,100.06,0,0,0,5.44,12.51c.55,1.06,1.11,2.12,1.7,3.17q2.66,4.77,5.92,9.55c.88,1.38,1.85,2.75,2.87,4.13h0q-2.6,2.82-5,5.81c-1.62,2.05-3.17,4.15-4.63,6.3s-2.83,4.36-4.12,6.61c-1,1.74-1.92,3.5-2.81,5.29A56.51,56.51,0,0,1,121.42,197.53Zm231.9,54.28a97.71,97.71,0,0,0-7.55-10.4l-5.26-6.33-6.8-8.19-12.29-14.81h0l-1.33-1.61.48,2.35,3.52,16.87,2,9.82,2.15,10.33a107.5,107.5,0,0,1,2.24,21.93,102.71,102.71,0,0,1-17.07,57.51l-.28.42A90.47,90.47,0,0,0,314.93,312a87.73,87.73,0,0,0-9-39.06,74.39,74.39,0,0,0-23-27.37h0c-.42-.31-.84-.61-1.27-.9l-3.28-2.23h0l-2.58-1.75-5.7,4.2c-.56.42-1.11.87-1.65,1.32h0a41.35,41.35,0,0,0-4.42,4.27h0a48.17,48.17,0,0,0-8.32,13.45l-2.55-7.79L250,246.48h0l-2-6.07,5.32-4,2.17-1.6H239.24l2.21,1.64,5.31,3.94-2,6.06h0l-3.16,9.61L239,263.89a48,48,0,0,0-8.33-13.46h0a40.1,40.1,0,0,0-4.17-4.08h0c-.62-.52-1.25-1-1.89-1.51l-5.71-4.2-2.57,1.75h0l-3.28,2.23c-.6.41-1.2.83-1.79,1.26h0a74.54,74.54,0,0,0-22.47,27,87.73,87.73,0,0,0-9,39.06,89.72,89.72,0,0,0,1.76,17.75l-.29-.42a102.78,102.78,0,0,1-17.06-57.51,107.57,107.57,0,0,1,2.24-21.93l1.89-9.12,2-9.78,3.77-18.12h0l.49-2.34-1.33,1.6h0l-13.28,16-6.83,8.22L149,241.41a98.62,98.62,0,0,0-7.55,10.39,83.84,83.84,0,0,1,4.29-18.6,87.69,87.69,0,0,1,3.86-9.23,93,93,0,0,1,14.25-21.13q3.31-3.72,7-7.13a108.65,108.65,0,0,1,37.89-22.39,30.08,30.08,0,0,0,.89,5,26.36,26.36,0,0,1,2.4-6.12,50,50,0,0,1,2.64-4.32c.41-.6.83-1.16,1.23-1.77a33.46,33.46,0,0,1,5.33-6.44l.26-.23h0a26.32,26.32,0,0,1,18.39-6.84h15a26.31,26.31,0,0,1,18.34,6.84h0l.29.25a33.61,33.61,0,0,1,4.77,5.53c.63.89,1.27,1.72,1.88,2.63a50.49,50.49,0,0,1,2.62,4.37,26.47,26.47,0,0,1,2.35,6.1,32.1,32.1,0,0,0,.85-5,108.64,108.64,0,0,1,37.92,22.41q3.72,3.4,7,7.13a93.49,93.49,0,0,1,13.55,19.73,88.7,88.7,0,0,1,4,9.15A84.56,84.56,0,0,1,353.32,251.81ZM373,197.12a60.25,60.25,0,0,1-19.77,20.58q-1-2-2.1-3.9-1.94-3.37-4.12-6.61t-4.63-6.3c-.79-1-1.6-2-2.43-2.95s-1.67-1.92-2.54-2.86c1-1.38,2-2.75,2.87-4.13,18-26.39,22.05-52.79,12.08-71.23l2.28,1.57c9.14,6.33,18.45,12.77,28.74,17.46q.43,4.75.44,9.72C383.8,168.38,380.16,184.75,373,197.12Z" transform="translate(0 -1.06)"/><path class="a" d="M320.15,123.38h-.35l-28.3,4a9.05,9.05,0,0,0,.33,18.09l20.5.58h.14c4,0,10.77-3.95,12.91-6.09h0a11.14,11.14,0,0,0,2.21-11.58A7.83,7.83,0,0,0,320.15,123.38Z" transform="translate(0 -1.06)"/><path class="a" d="M203.22,127.37l-27.95-3.94-.7-.05a7.82,7.82,0,0,0-7.44,5A11.14,11.14,0,0,0,169.34,140h0c2.14,2.14,8.91,6.09,12.91,6.09h.07l20.56-.58a9.05,9.05,0,0,0,.34-18.09Z" transform="translate(0 -1.06)"/><path class="a" d="M276.83,195.19c1.9,2.7,1.39,7-.94,10.32-1.57,2.23-4.21,3.51-7.77,3-3.62-.13-5.12-2.5-6.77-4.59-2.06-2.63-4.22-5.14-7.3-6.62a13.25,13.25,0,0,0-3.82-1.17l-.82-7.48a2.06,2.06,0,0,0-4.11-.22l-.84,7.85a14.73,14.73,0,0,0-3.94,1.34c-3,1.55-5.1,4-7.12,6.43-1.67,2-3.19,4.27-6.8,4.39-3.53.52-6.17-.64-7.75-2.75-2.39-3.19-3-7.37-1.08-10.09-3.32,2.3-4.24,7.45-2.76,12.08a12.45,12.45,0,0,0,5.68,6.8,14.72,14.72,0,0,0,5.91,1.77,14.52,14.52,0,0,0,6.58-1.17c3.1-1.33,5.26-3.72,7.41-6.13,1.71-1.9,3.37-4,6.88-4.05s5,1.86,6.64,3.76c2.13,2.43,4.27,4.9,7.35,6.28a14.15,14.15,0,0,0,6.66,1.24,14.6,14.6,0,0,0,4.56-1.14,12.62,12.62,0,0,0,7-7.68C281.05,202.68,280.09,197.48,276.83,195.19Z" transform="translate(0 -1.06)"/><path class="a" d="M225.45,170.3a6.17,6.17,0,0,0,5.84.09,2.29,2.29,0,0,0-1.86-4.18,1.73,1.73,0,0,1-.93,0,.74.74,0,0,1-.36-.27c-.06-.07.15-.08.2-.19a1.43,1.43,0,0,1,1.27-.94,4.06,4.06,0,0,1,2.73.47,4.21,4.21,0,0,1,1.91,2.32,4,4,0,0,1,.15,1.06,1.94,1.94,0,0,0,3.87.31,8.75,8.75,0,0,0,.11-1.74,8.42,8.42,0,0,0-5-7.15,8.21,8.21,0,0,0-5.69-.53,6.48,6.48,0,0,0-4.53,4.53,5.36,5.36,0,0,0,.92,5.09A5,5,0,0,0,225.45,170.3Z" transform="translate(0 -1.06)"/><path class="a" d="M258.32,171.34a1.94,1.94,0,0,0,1.78-2.09,3.59,3.59,0,0,1,.4-1.65,4.36,4.36,0,0,1,1.66-1.72,4,4,0,0,1,2.73-.48,1.44,1.44,0,0,1,1.28.94c0-.11.13.13.19.19s-.2.24-.36.27a1.72,1.72,0,0,1-.93,0,2.28,2.28,0,0,0-2.91,1,1.74,1.74,0,0,0-.11.18,2.3,2.3,0,0,0,1.17,3,6.17,6.17,0,0,0,5.84-.1,4.93,4.93,0,0,0,1.81-1.7,5.62,5.62,0,0,0,.5-4.53,6.51,6.51,0,0,0-4.53-4.53,8.18,8.18,0,0,0-5.7.54,8.11,8.11,0,0,0-4.91,8.88A1.94,1.94,0,0,0,258.32,171.34Z" transform="translate(0 -1.06)"/></svg>