<svg xmlns="http://www.w3.org/2000/svg" viewBox="0 0 1034.48 371.11"><defs><style>.a{fill:none;stroke-miterlimit:5.3;stroke-opacity:0.99;}.a,.e,.h,.i{stroke:#333;stroke-linecap:round;stroke-width:10px;}.b,.h{fill:#fefae0;}.b,.d,.e,.f,.g,.h,.i{fill-rule:evenodd;}.c,.g,.i{fill:#333;}.d,.e{fill:#dda15d;}.e{stroke-miterlimit:6;}.f{fill:#bc6c25;}.h{stroke-miterlimit:4.21;}.i{stroke-miterlimit:1.05;}.j,.l{font-size:58.83px;fill:#e56700;font-family:Seravek-Bold, Seravek;font-weight:700;}.j{letter-spacing:0.2em;}.k,.l{letter-spacing:0.25em;}</style></defs><path class="a" d="M162.94,6.39a4.76,4.76,0,1,0-6.73,6.72l35.11,35.11A4.76,4.76,0,1,0,198,41.49Z" transform="translate(272.74 0)"/><path class="a" d="M335.33,6.39a4.76,4.76,0,0,1,6.73,6.72L307,48.22a4.76,4.76,0,0,1-6.73-6.73Z" transform="translate(272.74 0)"/><path class="b" d="M235.67,79.52a36.21,36.21,0,0,1,0-72.41h26.92a36.21,36.21,0,1,1,0,72.41Z" transform="translate(272.74 0)"/><path class="c" d="M262.59,12.11a31.21,31.21,0,1,1,0,62.41H235.68a31.21,31.21,0,1,1,0-62.41h26.91m0-10H235.68a41.21,41.21,0,1,0,0,82.41h26.91a41.21,41.21,0,1,0,0-82.41Z" transform="translate(272.74 0)"/><path class="d" d="M245.17,240.43c-80,0-136.65-6.67-136.65-93,0-30.79,11.91-56.36,34.45-73.95,18.88-14.73,44.44-23.18,70.15-23.18,12.71,0,24.5,2.12,34.08,6.14l1.78.75,1.82-.64c9.46-3.33,20.88-5.09,33-5.09,26.45,0,52.54,8.14,71.58,22.35,23,17.17,35.17,42.63,35.17,73.62,0,39.9-13.38,64.87-42.13,78.59C320.55,239.32,280.51,240.43,245.17,240.43Z" transform="translate(272.74 0)"/><path class="c" d="M213.13,45.28v10c12.05,0,23.16,2,32.14,5.75l3.55,1.49,3.64-1.28c8.93-3.14,19.78-4.81,31.36-4.81,25.39,0,50.39,7.79,68.59,21.37a80.35,80.35,0,0,1,23.81,27.86c6.21,12.12,9.35,26.17,9.35,41.75,0,19.91-3.63,36.28-10.81,48.65-6.39,11-15.71,19.33-28.47,25.43-27,12.87-66.33,13.94-101.12,13.94-35.34,0-71.9-1.06-96.44-13.79a57.58,57.58,0,0,1-25.54-25.17c-6.5-12.54-9.67-28.59-9.67-49.06,0-15.44,3.08-29.46,9.17-41.68a82.3,82.3,0,0,1,23.36-28.32c18-14.06,42.46-22.13,67.07-22.13v-10m0,0c-49.14,0-109.6,30.6-109.6,102.13,0,90.91,61.05,98,141.65,98s150.4-7.11,150.4-98c0-72.38-61.91-101-111.75-101-12.77,0-24.75,1.88-34.68,5.38-10.23-4.29-22.71-6.53-36-6.53Z" transform="translate(272.74 0)"/><path class="e" d="M294.27,49S378.12.6,433.67,56.91a199.21,199.21,0,0,1-20.73,2.46s18.59,11.45,19.15,27.24c.44,12.32-5.28,18.86-12.35,30.91" transform="translate(272.74 0)"/><path class="e" d="M204.81,49S121,.6,65.41,56.91a199.52,199.52,0,0,0,20.73,2.46S67.56,70.82,67,86.61c-.44,12.32,5.28,18.86,12.34,30.91" transform="translate(272.74 0)"/><path class="f" d="M249.14,252.32c-22.4-11.08-71-37.43-88.68-65.11l-.09-.14c-21.52-31.5-22-62.9-1.18-78.14,9.89-7.23,24.86-11.38,41.09-11.38,18.45,0,35.05,5.3,45.55,14.55l3.31,2.91,3.3-2.91c10.5-9.25,27.11-14.55,45.55-14.55,16.23,0,31.2,4.15,41.09,11.38,20.82,15.24,20.34,46.64-1.18,78.14l-.08.14C320.16,214.89,271.53,241.24,249.14,252.32Z" transform="translate(272.74 0)"/><path class="c" d="M298,102.55c15,0,29.22,3.89,38.14,10.42,11,8.06,13.32,19.7,13.32,28.05,0,13.27-5.42,28.22-15.68,43.23l-.09.14-.08.13c-12,18.75-42.61,41.31-84.46,62.22-41.86-20.92-72.51-43.47-84.47-62.22l-.08-.13-.09-.14c-10.26-15-15.68-30-15.68-43.23,0-8.35,2.31-20,13.33-28.05,8.91-6.53,23.16-10.42,38.13-10.42,17,0,32.79,5,42.25,13.3l6.6,5.82,6.61-5.82c9.46-8.33,25.26-13.3,42.25-13.3m0-10c-18.2,0-36.71,5.1-48.86,15.79C237,97.65,218.49,92.55,200.28,92.55c-16.61,0-33,4.24-44,12.35-23.22,17-23.22,51,0,85,16.26,25.5,58.06,51,92.89,68,34.84-17,76.64-42.5,92.9-68,23.23-34,23.23-68,0-85C331,96.79,314.6,92.55,298,92.55Z" transform="translate(272.74 0)"/><path class="b" d="M196.8,351a95.37,95.37,0,0,1-17.91-20A107.69,107.69,0,0,1,161,270.71a112.62,112.62,0,0,1,2.35-22.95l4.09-19.68-12.84,15.47a88.47,88.47,0,0,0-16.13,28.77,89.27,89.27,0,0,1-.81-12c0-54.85,50-99.47,111.51-99.47s111.5,44.62,111.5,99.47a89.27,89.27,0,0,1-.81,12,88.32,88.32,0,0,0-16.14-28.77l-12.83-15.47L335,247.76a112.62,112.62,0,0,1,2.35,22.95A107.69,107.69,0,0,1,319.38,331a95.37,95.37,0,0,1-17.91,20A82.05,82.05,0,0,0,311.7,310.9c0-25.93-11.92-50.15-31.11-63.2l-2.92-2-2.85,2.1c-9.06,6.67-15.08,18.44-16.38,31.54A111.85,111.85,0,0,1,253.89,268l-4.75-14.46L244.38,268a111.85,111.85,0,0,1-4.55,11.37c-1.3-13.1-7.32-24.87-16.37-31.54l-2.86-2.1-2.92,2c-19.19,13.05-31.11,37.27-31.11,63.2A82.05,82.05,0,0,0,196.8,351Z" transform="translate(272.74 0)"/><path class="c" d="M249.14,165.82c55.09,0,100.55,37.3,106,84.93a100.29,100.29,0,0,0-7.56-10.4l-25.68-30.93,8.2,39.36a108.28,108.28,0,0,1,2.24,21.93,102.69,102.69,0,0,1-17.07,57.51l-.28.42a90.37,90.37,0,0,0,1.75-17.74,87.77,87.77,0,0,0-9-39.07,74.21,74.21,0,0,0-24.26-28.27l-5.86-4-5.7,4.2a44.81,44.81,0,0,0-14.39,19l-8.3-25.32-8.34,25.33a44.8,44.8,0,0,0-14.4-19l-5.7-4.2-5.86,4a74.21,74.21,0,0,0-24.26,28.27,87.77,87.77,0,0,0-9,39.07,90.37,90.37,0,0,0,1.75,17.74l-.28-.42A102.69,102.69,0,0,1,166,270.71a108.28,108.28,0,0,1,2.24-21.93l8.19-39.36-25.67,30.93a99.24,99.24,0,0,0-7.56,10.4c5.41-47.63,50.87-84.93,106-84.93m0-10c-64.3,0-116.51,46.81-116.51,104.47a94.72,94.72,0,0,0,6.76,35.13c.52-18,7.47-34.75,19-48.68a117.75,117.75,0,0,0-2.45,24c0,47.34,27.95,87.4,66.28,100.4C204,359.69,191.57,337,191.57,310.9c0-25.25,11.64-47.31,28.92-59.07,8.71,6.42,14.6,18.72,14.6,32.83a47.87,47.87,0,0,1-2.2,14.5c9.37-8.63,16.25-29.62,16.25-29.62s6.87,21,16.24,29.62a47.87,47.87,0,0,1-2.2-14.5c0-14.11,5.89-26.41,14.6-32.83,17.28,11.76,28.92,33.82,28.92,59.07,0,26.1-12.44,48.79-30.68,60.21,38.33-13,66.28-53.06,66.28-100.4a117.75,117.75,0,0,0-2.45-24c11.56,13.93,18.51,30.65,19,48.68a94.72,94.72,0,0,0,6.76-35.13c0-57.66-52.21-104.47-116.5-104.47Z" transform="translate(272.74 0)"/><path class="g" d="M219.54,194.54c-3.32,2.29-4.24,7.45-2.76,12.07a12.54,12.54,0,0,0,5.68,6.81,14.92,14.92,0,0,0,5.92,1.77A14.52,14.52,0,0,0,235,214c3.1-1.32,5.25-3.72,7.41-6.12,1.71-1.91,3.37-4,6.88-4s5,1.85,6.64,3.75c2.13,2.43,4.27,4.9,7.34,6.28a14.2,14.2,0,0,0,6.66,1.24,14.81,14.81,0,0,0,4.56-1.13,12.6,12.6,0,0,0,7-7.69c1.4-4.67.44-9.87-2.81-12.16,1.9,2.71,1.38,7-.95,10.33-1.56,2.22-4.2,3.51-7.77,3-3.62-.14-5.11-2.51-6.76-4.6-2.07-2.62-4.22-5.13-7.3-6.62a14.65,14.65,0,0,0-6.92-1.35,15.75,15.75,0,0,0-6.61,1.67c-3,1.56-5.1,4-7.12,6.43-1.67,2-3.2,4.27-6.8,4.4-3.54.52-6.17-.64-7.76-2.76C218.24,201.44,217.66,197.26,219.54,194.54Z" transform="translate(272.74 0)"/><path class="g" d="M247.08,187.36l-1.07,10a3.13,3.13,0,1,0,6.25,0l-1.07-9.8a2.06,2.06,0,0,0-4.11-.22Z" transform="translate(272.74 0)"/><path class="b" d="M286.89,177.29A30.27,30.27,0,0,0,256.64,147h-15a30.27,30.27,0,0,0-30.25,30.25" transform="translate(272.74 0)"/><path class="g" d="M286.89,177.29a28.61,28.61,0,0,0,.74-10.61,20.22,20.22,0,0,0-1.11-4.62,27.47,27.47,0,0,0-5.74-8.91,33.66,33.66,0,0,0-24.14-10.63h-15a33.79,33.79,0,0,0-24.12,10.65A28.34,28.34,0,0,0,211.7,162a15.81,15.81,0,0,0-.76,2.54,22.07,22.07,0,0,0-.55,3.9,28.65,28.65,0,0,0,1,8.81,32.19,32.19,0,0,1,5.05-10.43c.41-.61.83-1.17,1.23-1.78a33,33,0,0,1,5.33-6.43,26.35,26.35,0,0,1,18.64-7.08h15a26.38,26.38,0,0,1,18.62,7.09,34.59,34.59,0,0,1,4.78,5.53c.63.89,1.26,1.72,1.87,2.64A32.4,32.4,0,0,1,286.89,177.29Z" transform="translate(272.74 0)"/><path class="g" d="M231.21,165.15a1.72,1.72,0,0,1-.93,0,.69.69,0,0,1-.36-.27c-.06-.06.15-.08.19-.19a1.48,1.48,0,0,1,1.28-.94,4,4,0,0,1,2.73.48,3.91,3.91,0,0,1,2.06,3.37,1.94,1.94,0,0,0,3.87.31,8.59,8.59,0,0,0-10.61-9.42,6.51,6.51,0,0,0-4.53,4.53c-.77,2.88.31,5.13,2.31,6.23a6.17,6.17,0,0,0,5.84.1,2.29,2.29,0,0,0-1.85-4.19Z" transform="translate(272.74 0)"/><path class="g" d="M265,169.94a6.17,6.17,0,0,0,5.84-.1c2-1.1,3.09-3.34,2.31-6.23a6.48,6.48,0,0,0-4.53-4.53,8.16,8.16,0,0,0-5.69.54A8.26,8.26,0,0,0,258,168.5a1.94,1.94,0,1,0,3.87-.31,3.91,3.91,0,0,1,2.06-3.37,4.08,4.08,0,0,1,2.73-.48,1.46,1.46,0,0,1,1.27.94c0-.11.14.13.2.19s-.21.24-.36.27a1.63,1.63,0,0,1-.93,0,2.29,2.29,0,0,0-1.86,4.19Z" transform="translate(272.74 0)"/><path class="h" d="M249.15,116.55C163.52,52.76,143,141.49,80.32,139.71c-35.12-2.19-63.49-23.09-70-49.27,12.77,10.54,30.22,18.8,49.85,18.8,47.61,0,51.08-34.26,91.32-37.28C130,60.74,105,64.71,105,64.71s21.13-21.16,55.53-23.8c55.76-4.28,88.59,48.12,88.59,75.64" transform="translate(272.74 0)"/><path class="h" d="M249.12,116.55C334.75,52.76,355.25,141.49,418,139.71c35.12-2.19,63.49-23.09,70-49.27-12.77,10.54-30.22,18.8-49.85,18.8C390.52,109.24,387,75,346.8,72c21.46-11.22,46.45-7.25,46.45-7.25s-21.14-21.16-55.54-23.8C282,36.63,249.12,89,249.12,116.55" transform="translate(272.74 0)"/><path class="i" d="M323.62,135.36c2.19-2.19,2.26-8-1.7-8l-28.23,4a4.05,4.05,0,0,0,0,8.1l20.55.58C316.48,140,322,136.94,323.62,135.36Z" transform="translate(272.74 0)"/><path class="i" d="M174.65,135.36c-2.19-2.19-2.26-8,1.7-8l28.23,4a4,4,0,0,1,0,8.1L184,140C181.79,140,176.23,136.94,174.65,135.36Z" transform="translate(272.74 0)"/><path class="g" d="M241,233.79h16.25l-8.13,6Z" transform="translate(272.74 0)"/><text class="j" transform="translate(0 211.63)">T<tspan class="k" x="44.42" y="0">AMARIN</tspan></text><text class="l" transform="translate(689.27 212.33)">FINANCE</text></svg>